<?xml version="1.0" encoding="UTF-8"?>
<svg width="48px" height="48px" viewBox="0 0 48 48" version="1.1" xmlns="http://www.w3.org/2000/svg" xmlns:xlink="http://www.w3.org/1999/xlink">
    <title>facebook</title>
    <g id="页面-1" stroke="none" stroke-width="1" fill="none" fill-rule="evenodd">
        <g id="Apple-TV" transform="translate(-863.000000, -526.000000)">
            <g id="facebook" transform="translate(863.000000, 526.000000)">
                <rect id="矩形备份-3" x="0" y="0" width="48" height="48"></rect>
                <g id="编组">
                    <polygon id="路径" points="0 0 48 0 48 48 0 48"></polygon>
                    <path d="M28,27 L33,27 L35,19 L28,19 L28,15 C28,12.94 28,11 32,11 L35,11 L35,4.28 C34.348,4.194 31.886,4 29.286,4 C23.856,4 20,7.314 20,13.4 L20,19 L14,19 L14,27 L20,27 L20,44 L28,44 L28,27 Z" id="路径" fill="#000000" fill-rule="nonzero"></path>
                </g>
            </g>
        </g>
    </g>
</svg>