<?xml version="1.0" encoding="UTF-8"?>
<svg width="48px" height="48px" viewBox="0 0 48 48" version="1.1" xmlns="http://www.w3.org/2000/svg" xmlns:xlink="http://www.w3.org/1999/xlink">
    <title>instagram</title>
    <g id="页面-1" stroke="none" stroke-width="1" fill="none" fill-rule="evenodd">
        <g id="Apple-TV" transform="translate(-863.000000, -526.000000)">
            <g id="instagram" transform="translate(863.000000, 526.000000)">
                <rect id="矩形" x="0" y="0" width="48" height="48"></rect>
                <g id="编组" transform="translate(4.000000, 4.000000)">
                    <polygon id="路径" points="0 0 40 0 40 40 0 40"></polygon>
                    <path d="M20,3.33333333 C24.5283333,3.33333333 25.0933333,3.35 26.87,3.43333333 C28.645,3.51666667 29.8533333,3.795 30.9166667,4.20833333 C32.0166667,4.63166667 32.9433333,5.205 33.87,6.13 C34.7174894,6.96315993 35.373256,7.9709816 35.7916667,9.08333333 C36.2033333,10.145 36.4833333,11.355 36.5666667,13.13 C36.645,14.9066667 36.6666667,15.4716667 36.6666667,20 C36.6666667,24.5283333 36.65,25.0933333 36.5666667,26.87 C36.4833333,28.645 36.2033333,29.8533333 35.7916667,30.9166667 C35.374461,32.0296275 34.7185345,33.037695 33.87,33.87 C33.0366024,34.7171987 32.0288489,35.372921 30.9166667,35.7916667 C29.855,36.2033333 28.645,36.4833333 26.87,36.5666667 C25.0933333,36.645 24.5283333,36.6666667 20,36.6666667 C15.4716667,36.6666667 14.9066667,36.65 13.13,36.5666667 C11.355,36.4833333 10.1466667,36.2033333 9.08333333,35.7916667 C7.97054363,35.3741223 6.96254537,34.7182408 6.13,33.87 C5.28234406,33.0369762 4.62655206,32.0291155 4.20833333,30.9166667 C3.795,29.855 3.51666667,28.645 3.43333333,26.87 C3.355,25.0933333 3.33333333,24.5283333 3.33333333,20 C3.33333333,15.4716667 3.35,14.9066667 3.43333333,13.13 C3.51666667,11.3533333 3.795,10.1466667 4.20833333,9.08333333 C4.6253935,7.97029901 5.2813394,6.96220176 6.13,6.13 C6.96278496,5.28205205 7.97071431,4.6262154 9.08333333,4.20833333 C10.1466667,3.795 11.3533333,3.51666667 13.13,3.43333333 C14.9066667,3.355 15.4716667,3.33333333 20,3.33333333 Z M20,11.6666667 C15.3976271,11.6666667 11.6666667,15.3976271 11.6666667,20 C11.6666667,24.6023729 15.3976271,28.3333333 20,28.3333333 C24.6023729,28.3333333 28.3333333,24.6023729 28.3333333,20 C28.3333333,15.3976271 24.6023729,11.6666667 20,11.6666667 L20,11.6666667 Z M30.8333333,11.25 C30.8333333,10.0994068 29.9005932,9.16666667 28.75,9.16666667 C27.5994068,9.16666667 26.6666667,10.0994068 26.6666667,11.25 C26.6666667,12.4005932 27.5994068,13.3333333 28.75,13.3333333 C29.9005932,13.3333333 30.8333333,12.4005932 30.8333333,11.25 Z M20,15 C22.7614237,15 25,17.2385763 25,20 C25,22.7614237 22.7614237,25 20,25 C17.2385763,25 15,22.7614237 15,20 C15,17.2385763 17.2385763,15 20,15 Z" id="形状" fill="#000000" fill-rule="nonzero"></path>
                </g>
            </g>
        </g>
    </g>
</svg>