<?xml version="1.0" encoding="UTF-8"?>
<svg width="48px" height="48px" viewBox="0 0 48 48" version="1.1" xmlns="http://www.w3.org/2000/svg" xmlns:xlink="http://www.w3.org/1999/xlink">
    <title>twitter</title>
    <g id="页面-1" stroke="none" stroke-width="1" fill="none" fill-rule="evenodd">
        <g id="Apple-TV" transform="translate(-863.000000, -526.000000)">
            <g id="twitter" transform="translate(863.000000, 526.000000)">
                <rect id="矩形备份-2" x="0" y="0" width="48" height="48"></rect>
                <g id="编组" transform="translate(4.000000, 4.000000)">
                    <polygon id="路径" points="0 0 40 0 40 40 0 40"></polygon>
                    <path d="M36.9366667,9.42666667 C35.6642616,9.98948955 34.3149335,10.3591223 32.9333333,10.5233333 C34.3895847,9.65238886 35.4795092,8.28169038 36,6.66666667 C34.6333333,7.48 33.135,8.05 31.5733333,8.35833333 C29.4164159,6.05053252 25.9771293,5.48181506 23.1921105,6.97242154 C20.4070916,8.46302802 18.9727147,11.6402429 19.6966667,14.715 C14.0917042,14.4340721 8.86957315,11.7866576 5.33,7.43166667 C4.71048353,8.49575053 4.38492524,9.70537787 4.38666667,10.9366667 C4.38666667,13.3533333 5.61666667,15.4883333 7.48666667,16.7383333 C6.38001469,16.7034937 5.29772066,16.4046343 4.33,15.8666667 L4.33,15.9533333 C4.33068865,19.2717263 6.66919069,22.1302053 9.92166667,22.7883333 C8.89435839,23.0667282 7.81717781,23.1077636 6.77166667,22.9083333 C7.68354497,25.7486384 10.3007524,27.6946296 13.2833333,27.75 C10.363236,30.0433656 6.65123333,31.081839 2.965,30.6366667 C6.15116298,32.6857213 9.86016136,33.7735399 13.6483333,33.7700086 C26.47,33.7700086 33.4816667,23.1483333 33.4816667,13.9366667 C33.4816667,13.6366667 33.4733333,13.3333333 33.46,13.0366667 C34.8247735,12.0502794 36.0026646,10.8283657 36.9383333,9.42833333 L36.9366667,9.42666667 Z" id="路径" fill="#000000" fill-rule="nonzero"></path>
                </g>
            </g>
        </g>
    </g>
</svg>