<?xml version="1.0" encoding="UTF-8"?>
<svg width="48px" height="48px" viewBox="0 0 48 48" version="1.1" xmlns="http://www.w3.org/2000/svg" xmlns:xlink="http://www.w3.org/1999/xlink">
    <title>youtube</title>
    <g id="页面-1" stroke="none" stroke-width="1" fill="none" fill-rule="evenodd">
        <g id="Apple-TV" transform="translate(-863.000000, -526.000000)">
            <g id="youtube" transform="translate(863.000000, 526.000000)">
                <rect id="矩形备份" x="0" y="0" width="48" height="48"></rect>
                <g id="编组" transform="translate(4.000000, 4.000000)">
                    <polygon id="路径" points="0 0 40 0 40 40 0 40"></polygon>
                    <path d="M35.905,10.83 C36.6666667,13.8 36.6666667,20 36.6666667,20 C36.6666667,20 36.6666667,26.2 35.905,29.17 C35.4816667,30.8116667 34.2433333,32.1033333 32.675,32.54 C29.8266667,33.3333333 20,33.3333333 20,33.3333333 C20,33.3333333 10.1783333,33.3333333 7.325,32.54 C5.75,32.0966667 4.51333333,30.8066667 4.095,29.17 C3.33333333,26.2 3.33333333,20 3.33333333,20 C3.33333333,20 3.33333333,13.8 4.095,10.83 C4.51833333,9.18833333 5.75666667,7.89666667 7.325,7.46 C10.1783333,6.66666667 20,6.66666667 20,6.66666667 C20,6.66666667 29.8266667,6.66666667 32.675,7.46 C34.25,7.90333333 35.4866667,9.19333333 35.905,10.83 Z M16.6666667,25.8333333 L26.6666667,20 L16.6666667,14.1666667 L16.6666667,25.8333333 Z" id="形状" fill="#000000" fill-rule="nonzero"></path>
                </g>
            </g>
        </g>
    </g>
</svg>